<svg xmlns="http://www.w3.org/2000/svg" width="69.87" height="70.1" viewBox="0 0 69.87 70.1">
  <g id="レイヤー_2" data-name="レイヤー 2">
    <g id="レイヤー_1-2" data-name="レイヤー 1">
      <g>
        <path d="M17.82,17.06V31.39H14.51V19.58L3.67,27.86H0V24.51H2.7L26.56,6.41V6.19H.58V3h14V0h3.28V3H30V7.81Zm1.73,3V16.59l12.67,6.23v3.46Z"/>
        <path d="M39.24,31.1V27.86H65.55V5.29H39.24V2.09H68.86v29Z"/>
        <path d="M23.58,43.46,9.57,70.1h-9V66.86h7l14-26.6h9.64v3.2Z"/>
        <path d="M62.56,54.66v15.4H39.31V66.9H59.22V54.66H38.16V51.49H69.87v3.17Zm-24-10.3V41.09h31v3.27Z" style="fill: #00d2e6"/>
      </g>
    </g>
  </g>
</svg>
